<svg width="12" height="12" viewBox="0 0 12 12" fill="none" xmlns="http://www.w3.org/2000/svg">
<path d="M10.6125 2.47498L8.64375 0.524976C8.5125 0.393726 8.325 0.318726 8.1375 0.318726H4.725C4.18125 0.318726 3.73125 0.768726 3.73125 1.31248V8.15622C3.73125 8.69998 4.18125 9.14997 4.725 9.14997H9.825C10.3687 9.14997 10.8187 8.69998 10.8187 8.15622V2.98123C10.8187 2.79373 10.7437 2.60623 10.6125 2.47498ZM8.68125 1.76248L9.39375 2.47498H8.68125V1.76248ZM9.825 8.30622H4.725C4.65 8.30622 4.575 8.23123 4.575 8.15622V1.31248C4.575 1.23748 4.65 1.16248 4.725 1.16248H7.8375V2.88748C7.8375 3.11248 8.025 3.31873 8.26875 3.31873H9.975V8.17497C9.975 8.24997 9.9 8.30622 9.825 8.30622Z" fill="#009B83"/>
<path d="M7.8375 9.75C7.6125 9.75 7.40625 9.9375 7.40625 10.1812V10.6875C7.40625 10.7625 7.33125 10.8375 7.25625 10.8375H2.175C2.1 10.8375 2.025 10.7625 2.025 10.6875V3.825C2.025 3.75 2.1 3.675 2.175 3.675H2.8125C3.0375 3.675 3.24375 3.4875 3.24375 3.24375C3.24375 3 3.05625 2.8125 2.8125 2.8125H2.175C1.63125 2.8125 1.18125 3.2625 1.18125 3.80625V10.6875C1.18125 11.2312 1.63125 11.6812 2.175 11.6812H7.275C7.81875 11.6812 8.26875 11.2312 8.26875 10.6875V10.1812C8.26875 9.9375 8.08125 9.75 7.8375 9.75Z" fill="#009B83"/>
</svg>
