<svg width="16" height="16" viewBox="0 0 16 16" fill="none" xmlns="http://www.w3.org/2000/svg">
<mask id="mask0_44_2655" style="mask-type:luminance" maskUnits="userSpaceOnUse" x="0" y="0" width="16" height="16">
<path d="M16 0H0V16H16V0Z" fill="white"/>
</mask>
<g mask="url(#mask0_44_2655)">
<path d="M11.26 8.23335C11.78 7.44668 12.2134 6.57335 12.2134 5.56001C12.2134 3.23335 10.3 1.34668 7.97336 1.34668C5.6467 1.34668 3.78003 3.23335 3.78003 5.56001C3.78003 6.56668 4.21336 7.43335 4.7267 8.22001C5.69336 9.70001 7.97336 14.68 7.97336 14.68C7.97336 14.68 10.28 9.71335 11.26 8.23335Z" stroke="#349B7E" stroke-linecap="round" stroke-linejoin="round"/>
<path d="M7.99992 4.04669C8.91992 4.04669 9.66659 4.79336 9.66659 5.71336C9.66659 6.63336 8.91992 7.38003 7.99992 7.38003C7.07992 7.38003 6.33325 6.63336 6.33325 5.71336C6.33325 4.79336 7.07992 4.04669 7.99992 4.04669ZM7.99992 3.04669C6.52659 3.04669 5.33325 4.24002 5.33325 5.71336C5.33325 7.18669 6.52659 8.38003 7.99992 8.38003C9.47325 8.38003 10.6666 7.18669 10.6666 5.71336C10.6666 4.24002 9.47325 3.04669 7.99992 3.04669Z" fill="#349B7E"/>
</g>
</svg>
