<svg width="12" height="12" viewBox="0 0 12 12" fill="none" xmlns="http://www.w3.org/2000/svg">
<path d="M8.1375 6.52498H6.43125V4.78123C6.43125 4.55623 6.24375 4.34998 6 4.34998C5.775 4.34998 5.56875 4.53748 5.56875 4.78123V6.52498H5.5125C5.2875 6.52498 5.08125 6.71248 5.08125 6.95623C5.08125 7.19998 5.26875 7.38748 5.5125 7.38748H5.56875V7.44373C5.56875 7.66873 5.75625 7.87498 6 7.87498C6.225 7.87498 6.43125 7.68748 6.43125 7.44373V7.38748H8.1375C8.3625 7.38748 8.56875 7.19998 8.56875 6.95623C8.56875 6.71248 8.3625 6.52498 8.1375 6.52498Z" fill="#696666"/>
<path d="M11.1562 3.58123C11.1562 2.54998 10.3312 1.72498 9.3 1.72498C8.8125 1.72498 8.3625 1.91248 8.025 2.23123C7.51875 2.00623 6.99375 1.85623 6.4125 1.81873V1.18123H6.9375C7.1625 1.18123 7.36875 0.993726 7.36875 0.749976C7.36875 0.506226 7.18125 0.318726 6.9375 0.318726L5.04375 0.318726C4.81875 0.318726 4.6125 0.506226 4.6125 0.749976C4.6125 0.993726 4.8 1.18123 5.04375 1.18123L5.56875 1.18123V1.83748C5.00625 1.89373 4.4625 2.02498 3.95625 2.24998C3.61875 1.93123 3.16875 1.74373 2.68125 1.74373C1.65 1.74373 0.824997 2.56873 0.824997 3.59998C0.824997 4.10623 1.03125 4.59373 1.40625 4.93122C1.18125 5.49372 1.05 6.11247 1.05 6.74997C1.05 9.46872 3.2625 11.6812 5.98125 11.6812C8.7 11.6812 10.9125 9.46872 10.9125 6.74997C10.9125 6.11247 10.7812 5.49372 10.5562 4.93122C10.95 4.57498 11.1562 4.08748 11.1562 3.58123ZM9.3 2.56873C9.8625 2.56873 10.3125 3.01873 10.3125 3.58123C10.3125 3.76873 10.2562 3.95623 10.1625 4.10623C9.80625 3.54373 9.35625 3.07498 8.8125 2.69998C8.9625 2.60623 9.13125 2.56873 9.3 2.56873ZM1.6875 3.58123C1.6875 3.01873 2.1375 2.56873 2.7 2.56873C2.86875 2.56873 3.0375 2.60623 3.1875 2.69998C2.64375 3.07498 2.19375 3.56248 1.8375 4.10623C1.74375 3.93748 1.6875 3.76873 1.6875 3.58123ZM6 10.8375C3.75 10.8375 1.9125 8.99998 1.9125 6.74997C1.9125 4.49998 3.75 2.66248 6 2.66248C8.25 2.66248 10.0875 4.49998 10.0875 6.74997C10.0875 8.99998 8.25 10.8375 6 10.8375Z" fill="#696666"/>
</svg>
