<svg width="24" height="24" viewBox="0 0 24 24" fill="none" xmlns="http://www.w3.org/2000/svg">
<mask id="mask0_438_4269" style="mask-type:luminance" maskUnits="userSpaceOnUse" x="0" y="0" width="24" height="24">
<path d="M24 0H0V24H24V0Z" fill="white"/>
</mask>
<g mask="url(#mask0_438_4269)">
<path d="M19.5 12.32C19.5 10.66 20.84 9.32 22.5 9.32V7.5C22.5 6.95 22.05 6.5 21.5 6.5H2.5C1.95 6.5 1.5 6.95 1.5 7.5V9.32C3.16 9.32 4.5 10.66 4.5 12.32C4.5 13.98 3.16 15.32 1.5 15.32V16.5C1.5 17.05 1.95 17.5 2.5 17.5H21.5C22.05 17.5 22.5 17.05 22.5 16.5V15.32C20.84 15.32 19.5 13.98 19.5 12.32Z" stroke="#009B83" stroke-width="1.5" stroke-miterlimit="10"/>
<path d="M7.10999 6.48999V8.48999" stroke="#009B83" stroke-miterlimit="10" stroke-linecap="round"/>
<path d="M7 11L7 13" stroke="#009B83" stroke-miterlimit="10" stroke-linecap="round"/>
<path d="M7.10999 15.33V17.33" stroke="#009B83" stroke-miterlimit="10" stroke-linecap="round"/>
<path d="M4.54999 6.49L5.09999 4.63C5.25999 4.1 5.80999 3.8 6.33999 3.96L14.82 6.49" stroke="#009B83" stroke-width="1.5" stroke-miterlimit="10"/>
<path d="M20.06 17.49L19.5 19.36C19.34 19.89 18.79 20.19 18.26 20.03L9.72998 17.49" stroke="#009B83" stroke-width="1.5" stroke-miterlimit="10"/>
<path d="M16.65 9.41L11.65 14.41" stroke="#009B83" stroke-miterlimit="10" stroke-linecap="round"/>
<path d="M16.38 14.59C16.5788 14.59 16.74 14.4288 16.74 14.23C16.74 14.0312 16.5788 13.87 16.38 13.87C16.1812 13.87 16.02 14.0312 16.02 14.23C16.02 14.4288 16.1812 14.59 16.38 14.59Z" stroke="#009B83" stroke-miterlimit="10" stroke-linecap="round"/>
<path d="M11.92 10.33C12.1188 10.33 12.28 10.1688 12.28 9.97C12.28 9.77118 12.1188 9.61 11.92 9.61C11.7212 9.61 11.56 9.77118 11.56 9.97C11.56 10.1688 11.7212 10.33 11.92 10.33Z" stroke="#009B83" stroke-miterlimit="10" stroke-linecap="round"/>
</g>
</svg>
