<svg width="12" height="12" viewBox="0 0 12 12" fill="none" xmlns="http://www.w3.org/2000/svg">
<path d="M9.89869 10.5319L9.90872 10.5159L10.9086 8.48636L7.98787 6.29582L6.64404 7.30363C6.13724 7.27348 5.65909 7.05856 5.3001 6.69957C4.94112 6.34057 4.7262 5.86242 4.69605 5.35563L5.70386 4.01181L3.51337 1.09113L1.50082 2.08267L1.48383 2.09102L1.46779 2.10107C1.38254 2.15398 1.31224 2.22784 1.26359 2.3156C1.21495 2.40337 1.18958 2.50213 1.1899 2.60247L1.1899 3.12616C1.1899 4.13519 1.38864 5.13434 1.77478 6.06657C2.16092 6.9988 2.7269 7.84584 3.4404 8.55933C4.15389 9.27282 5.00093 9.8388 5.93316 10.2249C6.86539 10.6111 7.86454 10.8098 8.87358 10.8098L9.39729 10.8098C9.49763 10.8101 9.59638 10.7848 9.68415 10.7361C9.77191 10.6875 9.84577 10.6172 9.89869 10.5319ZM8.87358 10.0598C5.05033 10.0598 1.9399 6.94938 1.9399 3.12616L1.9399 2.70241L3.28668 2.03898L4.76641 4.01195L3.94261 5.1104L3.94261 5.23539C3.94344 5.98354 4.24102 6.70081 4.77004 7.22983C5.29906 7.75886 6.01633 8.05643 6.76448 8.05727L6.88947 8.05727L7.9879 7.23346L9.96075 8.71302L9.29721 10.0598L8.87358 10.0598Z" fill="#696666"/>
</svg>
