<svg width="24" height="24" viewBox="0 0 24 24" fill="none" xmlns="http://www.w3.org/2000/svg">
<mask id="mask0_438_4291" style="mask-type:luminance" maskUnits="userSpaceOnUse" x="0" y="0" width="24" height="24">
<path d="M24 0H0V24H24V0Z" fill="white"/>
</mask>
<g mask="url(#mask0_438_4291)">
<path d="M21.98 9.98998H21.12C20.93 9.33998 20.68 8.71998 20.36 8.14998L20.97 7.53998C21.36 7.14998 21.36 6.50998 20.97 6.12998L18.85 4.00998C18.46 3.61998 17.82 3.61998 17.44 4.00998L16.83 4.61998C16.25 4.29998 15.63 4.04998 14.99 3.85998V2.99998C14.99 2.44998 14.54 1.99998 13.99 1.99998H10.99C10.44 1.99998 9.99 2.44998 9.99 2.99998V3.85998C9.34 4.04998 8.72 4.29998 8.15 4.61998L7.54 4.00998C7.15 3.61998 6.51 3.61998 6.13 4.00998L4.01 6.12998C3.62 6.51998 3.62 7.15998 4.01 7.53998L4.62 8.14998C4.3 8.72998 4.05 9.34998 3.86 9.98998H3C2.45 9.98998 2 10.44 2 10.99V13.99C2 14.54 2.45 14.99 3 14.99H3.86C4.05 15.64 4.3 16.26 4.62 16.83L4.02 17.43C3.63 17.82 3.63 18.46 4.02 18.84L6.14 20.96C6.53 21.35 7.17 21.35 7.55 20.96L8.15 20.36C8.73 20.68 9.35 20.93 10 21.12V21.98C10 22.53 10.45 22.98 11 22.98H14C14.55 22.98 15 22.53 15 21.98V21.12C15.65 20.93 16.27 20.68 16.84 20.36L17.44 20.96C17.83 21.35 18.47 21.35 18.85 20.96L20.97 18.84C21.36 18.45 21.36 17.81 20.97 17.43L20.37 16.83C20.69 16.25 20.94 15.63 21.13 14.98H21.99C22.54 14.98 22.99 14.53 22.99 13.98V10.98C22.99 10.43 22.54 9.97998 21.99 9.97998L21.98 9.98998ZM21.98 13.99H20.33C20.26 14.33 20.18 14.67 20.07 14.99C19.94 15.37 19.79 15.74 19.61 16.09C19.45 16.4 19.28 16.7 19.09 16.98L19.81 17.7L20.26 18.15L18.14 20.27L17.69 19.82L16.97 19.1C16.69 19.29 16.38 19.46 16.08 19.62C15.73 19.8 15.36 19.95 14.98 20.08C14.66 20.19 14.32 20.27 13.98 20.34V21.99H10.98V20.34C10.64 20.27 10.3 20.19 9.98 20.08C9.6 19.95 9.23 19.8 8.88 19.62C8.57 19.46 8.27 19.29 7.99 19.1L7.27 19.82L6.82 20.27L4.7 18.15L5.15 17.7L5.87 16.98C5.68 16.7 5.51 16.39 5.35 16.09C5.17 15.74 5.02 15.37 4.89 14.99C4.78 14.67 4.7 14.33 4.63 13.99H2.98V10.99H4.63C4.7 10.65 4.78 10.31 4.89 9.98998C5.02 9.60998 5.17 9.23998 5.35 8.88998C5.51 8.57998 5.68 8.27998 5.87 7.99998L5.15 7.27998L4.7 6.82998L6.82 4.70998L7.27 5.15998L7.99 5.87998C8.27 5.68998 8.57 5.51998 8.88 5.35998C9.23 5.17998 9.6 5.02998 9.98 4.89998C10.3 4.78998 10.64 4.70998 10.98 4.63998V2.98998H13.98V4.63998C14.32 4.70998 14.66 4.78998 14.98 4.89998C15.36 5.02998 15.73 5.17998 16.08 5.35998C16.39 5.51998 16.69 5.68998 16.97 5.87998L17.69 5.15998L18.14 4.70998L20.26 6.82998L19.81 7.27998L19.09 7.99998C19.28 8.27998 19.45 8.58998 19.61 8.88998C19.79 9.23998 19.94 9.60998 20.07 9.98998C20.18 10.31 20.26 10.65 20.33 10.99H21.98V13.99Z" fill="#009B83" stroke="#009B83"/>
<path d="M12.48 16.49C14.6891 16.49 16.48 14.6991 16.48 12.49C16.48 10.2809 14.6891 8.48999 12.48 8.48999C10.2708 8.48999 8.47998 10.2809 8.47998 12.49C8.47998 14.6991 10.2708 16.49 12.48 16.49Z" stroke="#009B83" stroke-width="2" stroke-miterlimit="10"/>
</g>
</svg>
